<svg xmlns="http://www.w3.org/2000/svg" width="500" height="500" viewBox="0 0 500 500">
  <defs>
    <clipPath id="clip-path-dot-color">
      <circle cx="26" cy="170" r="8" transform="rotate(0,26,170)" />
      <circle cx="26" cy="186" r="8" transform="rotate(0,26,186)" />
      <circle cx="26" cy="298" r="8" transform="rotate(0,26,298)" />
      <circle cx="26" cy="330" r="8" transform="rotate(0,26,330)" />
      <circle cx="26" cy="346" r="8" transform="rotate(0,26,346)" />
      <circle cx="42" cy="170" r="8" transform="rotate(0,42,170)" />
      <circle cx="42" cy="186" r="8" transform="rotate(0,42,186)" />
      <circle cx="42" cy="202" r="8" transform="rotate(0,42,202)" />
      <circle cx="42" cy="218" r="8" transform="rotate(0,42,218)" />
      <circle cx="42" cy="282" r="8" transform="rotate(0,42,282)" />
      <circle cx="42" cy="298" r="8" transform="rotate(0,42,298)" />
      <circle cx="42" cy="330" r="8" transform="rotate(0,42,330)" />
      <circle cx="58" cy="154" r="8" transform="rotate(0,58,154)" />
      <circle cx="58" cy="218" r="8" transform="rotate(0,58,218)" />
      <circle cx="58" cy="234" r="8" transform="rotate(0,58,234)" />
      <circle cx="58" cy="250" r="8" transform="rotate(0,58,250)" />
      <circle cx="58" cy="266" r="8" transform="rotate(0,58,266)" />
      <circle cx="58" cy="298" r="8" transform="rotate(0,58,298)" />
      <circle cx="74" cy="186" r="8" transform="rotate(0,74,186)" />
      <circle cx="74" cy="202" r="8" transform="rotate(0,74,202)" />
      <circle cx="74" cy="234" r="8" transform="rotate(0,74,234)" />
      <circle cx="74" cy="282" r="8" transform="rotate(0,74,282)" />
      <circle cx="74" cy="314" r="8" transform="rotate(0,74,314)" />
      <circle cx="90" cy="154" r="8" transform="rotate(0,90,154)" />
      <circle cx="90" cy="170" r="8" transform="rotate(0,90,170)" />
      <circle cx="90" cy="202" r="8" transform="rotate(0,90,202)" />
      <circle cx="90" cy="234" r="8" transform="rotate(0,90,234)" />
      <circle cx="90" cy="250" r="8" transform="rotate(0,90,250)" />
      <circle cx="90" cy="282" r="8" transform="rotate(0,90,282)" />
      <circle cx="90" cy="298" r="8" transform="rotate(0,90,298)" />
      <circle cx="90" cy="314" r="8" transform="rotate(0,90,314)" />
      <circle cx="90" cy="346" r="8" transform="rotate(0,90,346)" />
      <circle cx="106" cy="154" r="8" transform="rotate(0,106,154)" />
      <circle cx="106" cy="170" r="8" transform="rotate(0,106,170)" />
      <circle cx="106" cy="186" r="8" transform="rotate(0,106,186)" />
      <circle cx="106" cy="202" r="8" transform="rotate(0,106,202)" />
      <circle cx="106" cy="250" r="8" transform="rotate(0,106,250)" />
      <circle cx="106" cy="266" r="8" transform="rotate(0,106,266)" />
      <circle cx="106" cy="282" r="8" transform="rotate(0,106,282)" />
      <circle cx="106" cy="298" r="8" transform="rotate(0,106,298)" />
      <circle cx="106" cy="330" r="8" transform="rotate(0,106,330)" />
      <circle cx="122" cy="154" r="8" transform="rotate(0,122,154)" />
      <circle cx="122" cy="186" r="8" transform="rotate(0,122,186)" />
      <circle cx="122" cy="218" r="8" transform="rotate(0,122,218)" />
      <circle cx="122" cy="250" r="8" transform="rotate(0,122,250)" />
      <circle cx="122" cy="282" r="8" transform="rotate(0,122,282)" />
      <circle cx="122" cy="314" r="8" transform="rotate(0,122,314)" />
      <circle cx="122" cy="346" r="8" transform="rotate(0,122,346)" />
      <circle cx="138" cy="186" r="8" transform="rotate(0,138,186)" />
      <circle cx="138" cy="234" r="8" transform="rotate(0,138,234)" />
      <circle cx="138" cy="250" r="8" transform="rotate(0,138,250)" />
      <circle cx="138" cy="330" r="8" transform="rotate(0,138,330)" />
      <circle cx="138" cy="346" r="8" transform="rotate(0,138,346)" />
      <circle cx="154" cy="42" r="8" transform="rotate(0,154,42)" />
      <circle cx="154" cy="90" r="8" transform="rotate(0,154,90)" />
      <circle cx="154" cy="122" r="8" transform="rotate(0,154,122)" />
      <circle cx="154" cy="154" r="8" transform="rotate(0,154,154)" />
      <circle cx="154" cy="186" r="8" transform="rotate(0,154,186)" />
      <circle cx="154" cy="218" r="8" transform="rotate(0,154,218)" />
      <circle cx="154" cy="266" r="8" transform="rotate(0,154,266)" />
      <circle cx="154" cy="282" r="8" transform="rotate(0,154,282)" />
      <circle cx="154" cy="330" r="8" transform="rotate(0,154,330)" />
      <circle cx="154" cy="346" r="8" transform="rotate(0,154,346)" />
      <circle cx="154" cy="362" r="8" transform="rotate(0,154,362)" />
      <circle cx="154" cy="394" r="8" transform="rotate(0,154,394)" />
      <circle cx="154" cy="410" r="8" transform="rotate(0,154,410)" />
      <circle cx="154" cy="442" r="8" transform="rotate(0,154,442)" />
      <circle cx="170" cy="26" r="8" transform="rotate(0,170,26)" />
      <circle cx="170" cy="42" r="8" transform="rotate(0,170,42)" />
      <circle cx="170" cy="58" r="8" transform="rotate(0,170,58)" />
      <circle cx="170" cy="74" r="8" transform="rotate(0,170,74)" />
      <circle cx="170" cy="90" r="8" transform="rotate(0,170,90)" />
      <circle cx="170" cy="170" r="8" transform="rotate(0,170,170)" />
      <circle cx="170" cy="186" r="8" transform="rotate(0,170,186)" />
      <circle cx="170" cy="202" r="8" transform="rotate(0,170,202)" />
      <circle cx="170" cy="282" r="8" transform="rotate(0,170,282)" />
      <circle cx="170" cy="314" r="8" transform="rotate(0,170,314)" />
      <circle cx="170" cy="330" r="8" transform="rotate(0,170,330)" />
      <circle cx="170" cy="378" r="8" transform="rotate(0,170,378)" />
      <circle cx="170" cy="394" r="8" transform="rotate(0,170,394)" />
      <circle cx="170" cy="410" r="8" transform="rotate(0,170,410)" />
      <circle cx="170" cy="426" r="8" transform="rotate(0,170,426)" />
      <circle cx="170" cy="458" r="8" transform="rotate(0,170,458)" />
      <circle cx="170" cy="474" r="8" transform="rotate(0,170,474)" />
      <circle cx="186" cy="58" r="8" transform="rotate(0,186,58)" />
      <circle cx="186" cy="74" r="8" transform="rotate(0,186,74)" />
      <circle cx="186" cy="90" r="8" transform="rotate(0,186,90)" />
      <circle cx="186" cy="122" r="8" transform="rotate(0,186,122)" />
      <circle cx="186" cy="154" r="8" transform="rotate(0,186,154)" />
      <circle cx="186" cy="218" r="8" transform="rotate(0,186,218)" />
      <circle cx="186" cy="234" r="8" transform="rotate(0,186,234)" />
      <circle cx="186" cy="266" r="8" transform="rotate(0,186,266)" />
      <circle cx="186" cy="298" r="8" transform="rotate(0,186,298)" />
      <circle cx="186" cy="314" r="8" transform="rotate(0,186,314)" />
      <circle cx="186" cy="330" r="8" transform="rotate(0,186,330)" />
      <circle cx="186" cy="410" r="8" transform="rotate(0,186,410)" />
      <circle cx="186" cy="442" r="8" transform="rotate(0,186,442)" />
      <circle cx="186" cy="474" r="8" transform="rotate(0,186,474)" />
      <circle cx="202" cy="26" r="8" transform="rotate(0,202,26)" />
      <circle cx="202" cy="42" r="8" transform="rotate(0,202,42)" />
      <circle cx="202" cy="74" r="8" transform="rotate(0,202,74)" />
      <circle cx="202" cy="138" r="8" transform="rotate(0,202,138)" />
      <circle cx="202" cy="186" r="8" transform="rotate(0,202,186)" />
      <circle cx="202" cy="202" r="8" transform="rotate(0,202,202)" />
      <circle cx="202" cy="234" r="8" transform="rotate(0,202,234)" />
      <circle cx="202" cy="250" r="8" transform="rotate(0,202,250)" />
      <circle cx="202" cy="298" r="8" transform="rotate(0,202,298)" />
      <circle cx="202" cy="330" r="8" transform="rotate(0,202,330)" />
      <circle cx="202" cy="346" r="8" transform="rotate(0,202,346)" />
      <circle cx="202" cy="394" r="8" transform="rotate(0,202,394)" />
      <circle cx="202" cy="426" r="8" transform="rotate(0,202,426)" />
      <circle cx="202" cy="458" r="8" transform="rotate(0,202,458)" />
      <circle cx="202" cy="474" r="8" transform="rotate(0,202,474)" />
      <circle cx="218" cy="42" r="8" transform="rotate(0,218,42)" />
      <circle cx="218" cy="58" r="8" transform="rotate(0,218,58)" />
      <circle cx="218" cy="106" r="8" transform="rotate(0,218,106)" />
      <circle cx="218" cy="122" r="8" transform="rotate(0,218,122)" />
      <circle cx="218" cy="170" r="8" transform="rotate(0,218,170)" />
      <circle cx="218" cy="218" r="8" transform="rotate(0,218,218)" />
      <circle cx="218" cy="234" r="8" transform="rotate(0,218,234)" />
      <circle cx="218" cy="266" r="8" transform="rotate(0,218,266)" />
      <circle cx="218" cy="282" r="8" transform="rotate(0,218,282)" />
      <circle cx="218" cy="298" r="8" transform="rotate(0,218,298)" />
      <circle cx="218" cy="474" r="8" transform="rotate(0,218,474)" />
      <circle cx="234" cy="58" r="8" transform="rotate(0,234,58)" />
      <circle cx="234" cy="90" r="8" transform="rotate(0,234,90)" />
      <circle cx="234" cy="186" r="8" transform="rotate(0,234,186)" />
      <circle cx="234" cy="202" r="8" transform="rotate(0,234,202)" />
      <circle cx="234" cy="218" r="8" transform="rotate(0,234,218)" />
      <circle cx="234" cy="250" r="8" transform="rotate(0,234,250)" />
      <circle cx="234" cy="282" r="8" transform="rotate(0,234,282)" />
      <circle cx="234" cy="378" r="8" transform="rotate(0,234,378)" />
      <circle cx="234" cy="410" r="8" transform="rotate(0,234,410)" />
      <circle cx="234" cy="442" r="8" transform="rotate(0,234,442)" />
      <circle cx="234" cy="458" r="8" transform="rotate(0,234,458)" />
      <circle cx="234" cy="474" r="8" transform="rotate(0,234,474)" />
      <circle cx="250" cy="26" r="8" transform="rotate(0,250,26)" />
      <circle cx="250" cy="58" r="8" transform="rotate(0,250,58)" />
      <circle cx="250" cy="74" r="8" transform="rotate(0,250,74)" />
      <circle cx="250" cy="90" r="8" transform="rotate(0,250,90)" />
      <circle cx="250" cy="106" r="8" transform="rotate(0,250,106)" />
      <circle cx="250" cy="122" r="8" transform="rotate(0,250,122)" />
      <circle cx="250" cy="186" r="8" transform="rotate(0,250,186)" />
      <circle cx="250" cy="202" r="8" transform="rotate(0,250,202)" />
      <circle cx="250" cy="250" r="8" transform="rotate(0,250,250)" />
      <circle cx="250" cy="298" r="8" transform="rotate(0,250,298)" />
      <circle cx="250" cy="346" r="8" transform="rotate(0,250,346)" />
      <circle cx="250" cy="394" r="8" transform="rotate(0,250,394)" />
      <circle cx="250" cy="410" r="8" transform="rotate(0,250,410)" />
      <circle cx="250" cy="474" r="8" transform="rotate(0,250,474)" />
      <circle cx="266" cy="26" r="8" transform="rotate(0,266,26)" />
      <circle cx="266" cy="74" r="8" transform="rotate(0,266,74)" />
      <circle cx="266" cy="90" r="8" transform="rotate(0,266,90)" />
      <circle cx="266" cy="106" r="8" transform="rotate(0,266,106)" />
      <circle cx="266" cy="138" r="8" transform="rotate(0,266,138)" />
      <circle cx="266" cy="154" r="8" transform="rotate(0,266,154)" />
      <circle cx="266" cy="186" r="8" transform="rotate(0,266,186)" />
      <circle cx="266" cy="250" r="8" transform="rotate(0,266,250)" />
      <circle cx="266" cy="298" r="8" transform="rotate(0,266,298)" />
      <circle cx="266" cy="314" r="8" transform="rotate(0,266,314)" />
      <circle cx="266" cy="330" r="8" transform="rotate(0,266,330)" />
      <circle cx="266" cy="346" r="8" transform="rotate(0,266,346)" />
      <circle cx="266" cy="394" r="8" transform="rotate(0,266,394)" />
      <circle cx="266" cy="410" r="8" transform="rotate(0,266,410)" />
      <circle cx="266" cy="426" r="8" transform="rotate(0,266,426)" />
      <circle cx="266" cy="474" r="8" transform="rotate(0,266,474)" />
      <circle cx="282" cy="26" r="8" transform="rotate(0,282,26)" />
      <circle cx="282" cy="74" r="8" transform="rotate(0,282,74)" />
      <circle cx="282" cy="122" r="8" transform="rotate(0,282,122)" />
      <circle cx="282" cy="138" r="8" transform="rotate(0,282,138)" />
      <circle cx="282" cy="218" r="8" transform="rotate(0,282,218)" />
      <circle cx="282" cy="234" r="8" transform="rotate(0,282,234)" />
      <circle cx="282" cy="250" r="8" transform="rotate(0,282,250)" />
      <circle cx="282" cy="266" r="8" transform="rotate(0,282,266)" />
      <circle cx="282" cy="314" r="8" transform="rotate(0,282,314)" />
      <circle cx="282" cy="330" r="8" transform="rotate(0,282,330)" />
      <circle cx="282" cy="346" r="8" transform="rotate(0,282,346)" />
      <circle cx="282" cy="362" r="8" transform="rotate(0,282,362)" />
      <circle cx="298" cy="26" r="8" transform="rotate(0,298,26)" />
      <circle cx="298" cy="42" r="8" transform="rotate(0,298,42)" />
      <circle cx="298" cy="106" r="8" transform="rotate(0,298,106)" />
      <circle cx="298" cy="170" r="8" transform="rotate(0,298,170)" />
      <circle cx="298" cy="250" r="8" transform="rotate(0,298,250)" />
      <circle cx="298" cy="282" r="8" transform="rotate(0,298,282)" />
      <circle cx="298" cy="330" r="8" transform="rotate(0,298,330)" />
      <circle cx="298" cy="346" r="8" transform="rotate(0,298,346)" />
      <circle cx="298" cy="378" r="8" transform="rotate(0,298,378)" />
      <circle cx="298" cy="394" r="8" transform="rotate(0,298,394)" />
      <circle cx="298" cy="410" r="8" transform="rotate(0,298,410)" />
      <circle cx="298" cy="442" r="8" transform="rotate(0,298,442)" />
      <circle cx="298" cy="474" r="8" transform="rotate(0,298,474)" />
      <circle cx="314" cy="58" r="8" transform="rotate(0,314,58)" />
      <circle cx="314" cy="122" r="8" transform="rotate(0,314,122)" />
      <circle cx="314" cy="170" r="8" transform="rotate(0,314,170)" />
      <circle cx="314" cy="186" r="8" transform="rotate(0,314,186)" />
      <circle cx="314" cy="202" r="8" transform="rotate(0,314,202)" />
      <circle cx="314" cy="234" r="8" transform="rotate(0,314,234)" />
      <circle cx="314" cy="282" r="8" transform="rotate(0,314,282)" />
      <circle cx="314" cy="346" r="8" transform="rotate(0,314,346)" />
      <circle cx="314" cy="394" r="8" transform="rotate(0,314,394)" />
      <circle cx="314" cy="410" r="8" transform="rotate(0,314,410)" />
      <circle cx="314" cy="426" r="8" transform="rotate(0,314,426)" />
      <circle cx="314" cy="474" r="8" transform="rotate(0,314,474)" />
      <circle cx="330" cy="58" r="8" transform="rotate(0,330,58)" />
      <circle cx="330" cy="74" r="8" transform="rotate(0,330,74)" />
      <circle cx="330" cy="90" r="8" transform="rotate(0,330,90)" />
      <circle cx="330" cy="106" r="8" transform="rotate(0,330,106)" />
      <circle cx="330" cy="154" r="8" transform="rotate(0,330,154)" />
      <circle cx="330" cy="186" r="8" transform="rotate(0,330,186)" />
      <circle cx="330" cy="218" r="8" transform="rotate(0,330,218)" />
      <circle cx="330" cy="298" r="8" transform="rotate(0,330,298)" />
      <circle cx="330" cy="330" r="8" transform="rotate(0,330,330)" />
      <circle cx="330" cy="346" r="8" transform="rotate(0,330,346)" />
      <circle cx="330" cy="410" r="8" transform="rotate(0,330,410)" />
      <circle cx="330" cy="426" r="8" transform="rotate(0,330,426)" />
      <circle cx="330" cy="474" r="8" transform="rotate(0,330,474)" />
      <circle cx="346" cy="26" r="8" transform="rotate(0,346,26)" />
      <circle cx="346" cy="42" r="8" transform="rotate(0,346,42)" />
      <circle cx="346" cy="122" r="8" transform="rotate(0,346,122)" />
      <circle cx="346" cy="138" r="8" transform="rotate(0,346,138)" />
      <circle cx="346" cy="202" r="8" transform="rotate(0,346,202)" />
      <circle cx="346" cy="218" r="8" transform="rotate(0,346,218)" />
      <circle cx="346" cy="234" r="8" transform="rotate(0,346,234)" />
      <circle cx="346" cy="266" r="8" transform="rotate(0,346,266)" />
      <circle cx="346" cy="298" r="8" transform="rotate(0,346,298)" />
      <circle cx="346" cy="346" r="8" transform="rotate(0,346,346)" />
      <circle cx="346" cy="362" r="8" transform="rotate(0,346,362)" />
      <circle cx="346" cy="378" r="8" transform="rotate(0,346,378)" />
      <circle cx="346" cy="394" r="8" transform="rotate(0,346,394)" />
      <circle cx="346" cy="410" r="8" transform="rotate(0,346,410)" />
      <circle cx="346" cy="426" r="8" transform="rotate(0,346,426)" />
      <circle cx="346" cy="474" r="8" transform="rotate(0,346,474)" />
      <circle cx="362" cy="154" r="8" transform="rotate(0,362,154)" />
      <circle cx="362" cy="170" r="8" transform="rotate(0,362,170)" />
      <circle cx="362" cy="202" r="8" transform="rotate(0,362,202)" />
      <circle cx="362" cy="250" r="8" transform="rotate(0,362,250)" />
      <circle cx="362" cy="266" r="8" transform="rotate(0,362,266)" />
      <circle cx="362" cy="282" r="8" transform="rotate(0,362,282)" />
      <circle cx="362" cy="298" r="8" transform="rotate(0,362,298)" />
      <circle cx="362" cy="314" r="8" transform="rotate(0,362,314)" />
      <circle cx="362" cy="346" r="8" transform="rotate(0,362,346)" />
      <circle cx="362" cy="410" r="8" transform="rotate(0,362,410)" />
      <circle cx="362" cy="442" r="8" transform="rotate(0,362,442)" />
      <circle cx="362" cy="474" r="8" transform="rotate(0,362,474)" />
      <circle cx="378" cy="202" r="8" transform="rotate(0,378,202)" />
      <circle cx="378" cy="218" r="8" transform="rotate(0,378,218)" />
      <circle cx="378" cy="266" r="8" transform="rotate(0,378,266)" />
      <circle cx="378" cy="314" r="8" transform="rotate(0,378,314)" />
      <circle cx="378" cy="330" r="8" transform="rotate(0,378,330)" />
      <circle cx="378" cy="346" r="8" transform="rotate(0,378,346)" />
      <circle cx="378" cy="378" r="8" transform="rotate(0,378,378)" />
      <circle cx="378" cy="410" r="8" transform="rotate(0,378,410)" />
      <circle cx="378" cy="474" r="8" transform="rotate(0,378,474)" />
      <circle cx="394" cy="186" r="8" transform="rotate(0,394,186)" />
      <circle cx="394" cy="202" r="8" transform="rotate(0,394,202)" />
      <circle cx="394" cy="266" r="8" transform="rotate(0,394,266)" />
      <circle cx="394" cy="282" r="8" transform="rotate(0,394,282)" />
      <circle cx="394" cy="330" r="8" transform="rotate(0,394,330)" />
      <circle cx="394" cy="346" r="8" transform="rotate(0,394,346)" />
      <circle cx="394" cy="410" r="8" transform="rotate(0,394,410)" />
      <circle cx="394" cy="426" r="8" transform="rotate(0,394,426)" />
      <circle cx="394" cy="474" r="8" transform="rotate(0,394,474)" />
      <circle cx="410" cy="154" r="8" transform="rotate(0,410,154)" />
      <circle cx="410" cy="186" r="8" transform="rotate(0,410,186)" />
      <circle cx="410" cy="202" r="8" transform="rotate(0,410,202)" />
      <circle cx="410" cy="218" r="8" transform="rotate(0,410,218)" />
      <circle cx="410" cy="234" r="8" transform="rotate(0,410,234)" />
      <circle cx="410" cy="250" r="8" transform="rotate(0,410,250)" />
      <circle cx="410" cy="282" r="8" transform="rotate(0,410,282)" />
      <circle cx="410" cy="330" r="8" transform="rotate(0,410,330)" />
      <circle cx="410" cy="346" r="8" transform="rotate(0,410,346)" />
      <circle cx="410" cy="362" r="8" transform="rotate(0,410,362)" />
      <circle cx="410" cy="378" r="8" transform="rotate(0,410,378)" />
      <circle cx="410" cy="394" r="8" transform="rotate(0,410,394)" />
      <circle cx="410" cy="410" r="8" transform="rotate(0,410,410)" />
      <circle cx="410" cy="458" r="8" transform="rotate(0,410,458)" />
      <circle cx="410" cy="474" r="8" transform="rotate(0,410,474)" />
      <circle cx="426" cy="170" r="8" transform="rotate(0,426,170)" />
      <circle cx="426" cy="218" r="8" transform="rotate(0,426,218)" />
      <circle cx="426" cy="234" r="8" transform="rotate(0,426,234)" />
      <circle cx="426" cy="314" r="8" transform="rotate(0,426,314)" />
      <circle cx="426" cy="362" r="8" transform="rotate(0,426,362)" />
      <circle cx="426" cy="394" r="8" transform="rotate(0,426,394)" />
      <circle cx="426" cy="458" r="8" transform="rotate(0,426,458)" />
      <circle cx="442" cy="170" r="8" transform="rotate(0,442,170)" />
      <circle cx="442" cy="218" r="8" transform="rotate(0,442,218)" />
      <circle cx="442" cy="234" r="8" transform="rotate(0,442,234)" />
      <circle cx="442" cy="266" r="8" transform="rotate(0,442,266)" />
      <circle cx="442" cy="298" r="8" transform="rotate(0,442,298)" />
      <circle cx="442" cy="314" r="8" transform="rotate(0,442,314)" />
      <circle cx="442" cy="330" r="8" transform="rotate(0,442,330)" />
      <circle cx="442" cy="394" r="8" transform="rotate(0,442,394)" />
      <circle cx="442" cy="458" r="8" transform="rotate(0,442,458)" />
      <circle cx="442" cy="474" r="8" transform="rotate(0,442,474)" />
      <circle cx="458" cy="154" r="8" transform="rotate(0,458,154)" />
      <circle cx="458" cy="218" r="8" transform="rotate(0,458,218)" />
      <circle cx="458" cy="266" r="8" transform="rotate(0,458,266)" />
      <circle cx="458" cy="282" r="8" transform="rotate(0,458,282)" />
      <circle cx="458" cy="298" r="8" transform="rotate(0,458,298)" />
      <circle cx="458" cy="314" r="8" transform="rotate(0,458,314)" />
      <circle cx="458" cy="346" r="8" transform="rotate(0,458,346)" />
      <circle cx="458" cy="394" r="8" transform="rotate(0,458,394)" />
      <circle cx="458" cy="458" r="8" transform="rotate(0,458,458)" />
      <circle cx="458" cy="474" r="8" transform="rotate(0,458,474)" />
      <circle cx="474" cy="186" r="8" transform="rotate(0,474,186)" />
      <circle cx="474" cy="218" r="8" transform="rotate(0,474,218)" />
      <circle cx="474" cy="234" r="8" transform="rotate(0,474,234)" />
      <circle cx="474" cy="298" r="8" transform="rotate(0,474,298)" />
      <circle cx="474" cy="330" r="8" transform="rotate(0,474,330)" />
      <circle cx="474" cy="346" r="8" transform="rotate(0,474,346)" />
      <circle cx="474" cy="362" r="8" transform="rotate(0,474,362)" />
      <circle cx="474" cy="410" r="8" transform="rotate(0,474,410)" />
      <circle cx="474" cy="426" r="8" transform="rotate(0,474,426)" />
      <circle cx="474" cy="458" r="8" transform="rotate(0,474,458)" />
    </clipPath>
    <clipPath id="clip-path-corners-square-color-0-0">
      <path clip-rule="evenodd"
        d="M 18 58v 32a 40 40, 0, 0, 0, 40 40h 32a 40 40, 0, 0, 0, 40 -40v -32a 40 40, 0, 0, 0, -40 -40h -32a 40 40, 0, 0, 0, -40 40M 58 34h 32a 24 24, 0, 0, 1, 24 24v 32a 24 24, 0, 0, 1, -24 24h -32a 24 24, 0, 0, 1, -24 -24v -32a 24 24, 0, 0, 1, 24 -24"
        transform="rotate(0,74,74)" />
    </clipPath>
    <clipPath id="clip-path-corners-dot-color-0-0">
      <circle cx="74" cy="74" r="24" transform="rotate(0,74,74)" />
    </clipPath>
    <clipPath id="clip-path-corners-square-color-1-0">
      <path clip-rule="evenodd"
        d="M 370 58v 32a 40 40, 0, 0, 0, 40 40h 32a 40 40, 0, 0, 0, 40 -40v -32a 40 40, 0, 0, 0, -40 -40h -32a 40 40, 0, 0, 0, -40 40M 410 34h 32a 24 24, 0, 0, 1, 24 24v 32a 24 24, 0, 0, 1, -24 24h -32a 24 24, 0, 0, 1, -24 -24v -32a 24 24, 0, 0, 1, 24 -24"
        transform="rotate(90,426,74)" />
    </clipPath>
    <clipPath id="clip-path-corners-dot-color-1-0">
      <circle cx="426" cy="74" r="24" transform="rotate(90,426,74)" />
    </clipPath>
    <clipPath id="clip-path-corners-square-color-0-1">
      <path clip-rule="evenodd"
        d="M 18 410v 32a 40 40, 0, 0, 0, 40 40h 32a 40 40, 0, 0, 0, 40 -40v -32a 40 40, 0, 0, 0, -40 -40h -32a 40 40, 0, 0, 0, -40 40M 58 386h 32a 24 24, 0, 0, 1, 24 24v 32a 24 24, 0, 0, 1, -24 24h -32a 24 24, 0, 0, 1, -24 -24v -32a 24 24, 0, 0, 1, 24 -24"
        transform="rotate(-90,74,426)" />
    </clipPath>
    <clipPath id="clip-path-corners-dot-color-0-1">
      <circle cx="74" cy="426" r="24" transform="rotate(-90,74,426)" />
    </clipPath>
  </defs>
  <rect x="0" y="0" height="500" width="500" clip-path="url('#clip-path-dot-color')" fill="#18417E">
    <animate attributeName="fill" values="#18417E; #2c61b0; #18417E" dur="10s"
      repeatCount="indefinite" />
  </rect>
  <rect x="18" y="18" height="112" width="112"
    clip-path="url('#clip-path-corners-square-color-0-0')" fill="#18417E" />
  <rect x="50" y="50" height="48" width="48" clip-path="url('#clip-path-corners-dot-color-0-0')"
    fill="#18417E" />
  <rect x="370" y="18" height="112" width="112"
    clip-path="url('#clip-path-corners-square-color-1-0')" fill="#18417E" />
  <rect x="402" y="50" height="48" width="48" clip-path="url('#clip-path-corners-dot-color-1-0')"
    fill="#18417E" />
  <rect x="18" y="370" height="112" width="112"
    clip-path="url('#clip-path-corners-square-color-0-1')" fill="#18417E" />
  <rect x="50" y="402" height="48" width="48" clip-path="url('#clip-path-corners-dot-color-0-1')"
    fill="#18417E" />
</svg>